<svg width="196" height="31" viewBox="0 0 196 31" fill="none" xmlns="http://www.w3.org/2000/svg">
<path d="M15.5709 5.11255L25.0237 30.8369H19.3634L17.5806 25.5493H7.39852L5.68665 30.8369H0L9.33729 5.11255H15.5709ZM8.81867 21.2119H16.1159L12.4754 10.263L8.81867 21.2119Z" fill="#055E7C"/>
<path d="M32.594 5.11279H44.9559C50.3894 5.11279 53.1952 7.43456 53.1952 11.6169C53.1952 14.1911 52.1802 15.9504 50.0632 16.9164C52.8001 17.9918 54.117 19.9916 54.117 23.0091C54.117 27.9031 50.756 30.8351 44.5609 30.8351H32.594V5.11279ZM43.9369 15.0539C46.5199 15.0539 47.7679 14.2329 47.7679 12.257C47.7679 10.2811 46.4956 9.5814 43.8964 9.5814H37.7762V15.0539H43.9389H43.9369ZM44.1496 26.1896C47.1074 26.1896 48.5053 25.2116 48.5053 22.858C48.5053 20.3474 47.1054 19.4509 44.1172 19.4509H37.7742V26.1896H44.1496Z" fill="#055E7C"/>
<path d="M75.0166 5.11279L84.4734 30.8371H78.8171L77.0242 25.5495H66.8482L65.1323 30.8371H59.4537L68.7789 5.11279H75.0145H75.0166ZM68.2704 21.2141H75.5676L71.9251 10.2652L68.2704 21.2141Z" fill="#055E7C"/>
<path d="M91.9077 0H86.9077V10H91.9077V0Z" fill="#EB2227"/>
<path d="M193.08 5.29766C192.29 5.29766 191.573 5.60776 191.046 6.10869L179.343 15.3838L177.127 13.6524L167.585 6.19814L167.414 6.05502C167.269 5.93774 167.25 5.92184 167.015 5.75685C166.503 5.38314 165.927 5.14062 165.265 5.14062C163.719 5.14062 162.467 6.40487 162.467 7.96531C162.467 8.83398 162.856 9.61122 163.468 10.13L163.472 10.134C163.498 10.1559 163.525 10.1777 163.553 10.1996L174.42 18.9679L176.328 20.5084L176.336 28.1794V28.1933C176.351 29.7339 177.629 30.9782 179.201 30.9782C180.773 30.9782 182.019 29.7657 182.064 28.251L182.07 28.241V20.5144L193.65 11.4301L193.781 11.3227L194.12 11.0444C194.191 10.9848 194.286 10.9152 194.351 10.8536L194.806 10.4779C195.499 9.88951 196 9.11625 196 8.16807C196 6.58577 194.693 5.30363 193.08 5.30363V5.29766Z" fill="#00BCD4"/>
<path d="M165.632 26.5812L151.884 6.33331C151.357 5.61174 150.484 5.14062 149.512 5.14062C147.911 5.14062 146.613 6.41481 146.613 7.98519C146.613 8.6193 146.823 9.20372 147.18 9.67682L153.687 18.8705L141.313 18.8506C140.584 18.8705 139.435 19.3217 138.604 20.3315L134.247 26.4063C133.793 26.8933 133.517 27.5433 133.517 28.2549C133.517 29.7716 134.769 31.0001 136.315 31.0001C137.241 31.0001 138.062 30.5588 138.57 29.879L138.606 29.8591L142.535 24.7345H157.828L160.988 29.5888C161.46 30.4296 162.374 31.0001 163.422 31.0001C164.955 31.0001 166.199 29.7796 166.199 28.2748C166.199 27.7063 166.021 27.1795 165.719 26.7422C165.693 26.6846 165.664 26.6289 165.634 26.5812H165.632Z" fill="#00BCD4"/>
<path d="M128.119 5.13647C128.098 5.13647 128.078 5.13647 128.058 5.13647H106.734C105.129 5.13647 103.83 6.41265 103.83 7.98501C103.83 8.5575 104.005 9.09024 104.3 9.53551C104.704 10.0961 105.271 10.4976 105.994 10.7361C106.231 10.7978 106.478 10.8335 106.734 10.8335H128.244H128.289C128.366 10.8335 128.441 10.8375 128.516 10.8455C129.699 10.9647 130.623 11.9467 130.623 13.1394C130.623 14.4017 129.588 15.4274 128.305 15.4433H128.111H120.149H106.592C104.868 15.4433 103.83 16.7592 103.83 18.258V28.1077C103.83 29.6641 105.117 30.9264 106.703 30.9264C108.289 30.9264 109.515 29.7198 109.572 28.213V21.1722H128.121L128.202 21.1682C128.202 21.1682 128.206 21.1682 128.208 21.1682C132.614 21.0509 136.151 17.5086 136.151 13.1553C136.151 8.802 132.568 5.20804 128.117 5.13647H128.119Z" fill="#00BCD4"/>
</svg>
